ha<?xml version="1.0" encoding="UTF-8" standalone="no"?>
<!DOCTYPE svg PUBLIC "-//W3C//DTD SVG 1.1//EN" "http://www.w3.org/Graphics/SVG/1.1/DTD/svg11.dtd">
<svg width="100%" height="100%" viewBox="0 0 4 4" version="1.1" xmlns="http://www.w3.org/2000/svg"  xml:space="preserve"  style="fill-rule:evenodd;clip-rule:evenodd;stroke-linejoin:round;stroke-miterlimit:1.41421;">
    <g transform="matrix(0.2,0,0,0.2,-0.4,-0.4)">
        <circle cx="15.5" cy="9.5" r="1.5"/>
        <circle cx="8.5" cy="9.5" r="1.5"/>
        <path d="M11.99,2C6.47,2 2,6.48 2,12C2,17.52 6.47,22 11.99,22C17.52,22 22,17.52 22,12C22,6.48 17.52,2 11.99,2ZM12,20C7.58,20 4,16.42 4,12C4,7.58 7.58,4 12,4C16.42,4 20,7.58 20,12C20,16.42 16.42,20 12,20ZM12,14C9.67,14 7.68,15.45 6.88,17.5L8.55,17.5C9.24,16.31 10.52,15.5 12,15.5C13.48,15.5 14.75,16.31 15.45,17.5L17.12,17.5C16.32,15.45 14.33,14 12,14Z" style="fill-rule:nonzero;"/>
    </g>
</svg>
